<?xml version="1.0" standalone="no"?>
<!DOCTYPE svg PUBLIC "-//W3C//DTD SVG 20010904//EN"
 "http://www.w3.org/TR/2001/REC-SVG-20010904/DTD/svg10.dtd">
<svg version="1.0" xmlns="http://www.w3.org/2000/svg"
 width="260.000000pt" height="260.000000pt" viewBox="0 0 260.000000 260.000000"
 preserveAspectRatio="xMidYMid meet">
<metadata>
Created by potrace 1.11, written by Peter Selinger 2001-2013
</metadata>
<g transform="translate(0.000000,260.000000) scale(0.100000,-0.100000)"
fill="#000000" stroke="none">
<path d="M1238 1990 c-107 -18 -209 -98 -256 -198 l-27 -57 -3 -421 c-2 -403
-2 -424 18 -476 28 -74 71 -130 133 -171 70 -46 118 -60 204 -60 131 1 247 73
304 189 25 49 33 82 37 139 6 97 -12 152 -90 273 l-60 93 45 68 c82 123 100
167 105 256 3 64 0 91 -17 135 -29 76 -72 132 -134 173 -81 53 -168 72 -259
57z m164 -189 c69 -48 102 -133 78 -207 -7 -22 -92 -160 -189 -307 l-176 -269
-3 324 c-2 269 0 330 13 363 18 49 57 92 99 111 46 21 136 13 178 -15z m56
-741 c37 -61 37 -148 2 -201 -49 -74 -141 -107 -223 -80 -67 23 -67 25 50 204
122 187 110 182 171 77z"/>
</g>
</svg>
