<?xml version="1.0" encoding="UTF-8" standalone="no"?><!DOCTYPE svg PUBLIC "-//W3C//DTD SVG 1.1//EN" "http://www.w3.org/Graphics/SVG/1.1/DTD/svg11.dtd"><svg width="100%" height="100%" viewBox="0 0 110 165" version="1.1" xmlns="http://www.w3.org/2000/svg" xmlns:xlink="http://www.w3.org/1999/xlink" xml:space="preserve" xmlns:serif="http://www.serif.com/" style="fill-rule:evenodd;clip-rule:evenodd;stroke-linejoin:round;stroke-miterlimit:1.41421;"><path d="M45.681,128.781l0,-119.765c0.17,-4.451 3.576,-8.434 7.968,-8.941c1.316,-0.152 1.637,-0.032 2.064,0c4.391,0.679 7.795,4.438 7.968,8.941l0,119.765l29.772,-40.128c0,0 3.876,-3.779 7.883,-3.613c2.072,0.217 2.677,0.524 3.759,1.133c4.082,2.297 5.788,8.066 3.429,12.257c-0.247,0.439 -0.329,0.536 -0.615,0.949l-46,62c-1.134,1.432 -1.583,1.721 -2.451,2.265c-3.465,2.17 -8.42,1.587 -11.284,-1.41c-0.344,-0.36 -0.413,-0.466 -0.721,-0.855l-46,-62c-3.984,-5.738 0.7,-15.182 8.266,-14.303c2.063,0.24 4.027,1.218 5.461,2.714c0.348,0.363 0.417,0.47 0.729,0.863l29.772,40.128Z" style="fill:#fff;"/></svg>