<svg xmlns="http://www.w3.org/2000/svg" fill-rule="evenodd" stroke-linejoin="round" stroke-miterlimit="1.41421" clip-rule="evenodd" viewBox="0 0 26 19">
  <path fill="#464646" d="M23.77 18.382H1.27c-.712-.029-.771-.211-.966-.423-.678-.737-.163-2.155.966-2.202h22.5c.036.002.072.003.108.005.806.1.949.45 1.094.781.349.796-.133 1.795-1.202 1.839zm0-7.878H1.27c-1.315-.055-1.887-2.547 0-2.625h22.5c.036.001.072.003.108.004.351.044.443.101.61.209.925.605.637 2.356-.718 2.412zm0-7.879H1.27C-.085 2.569-.617.078 1.27 0h22.5c.036.001.072.003.108.004.806.101.949.451 1.094.781.349.796-.133 1.796-1.202 1.84z"/>
</svg>