<svg xmlns="http://www.w3.org/2000/svg" fill-rule="evenodd" stroke-linejoin="round" stroke-miterlimit="1.41421" clip-rule="evenodd" viewBox="0 0 19 19">
  <path fill="#464646" d="M9.251 7.432L16.29.393c1.39-1.279 2.748.888 1.856 1.856l-7.039 7.039 7.015 7.015c.025.027.049.053.074.08.217.279.242.384.283.579.227 1.082-1.215 2.116-2.213 1.197l-7.015-7.014-7.015 7.014c-.998.919-2.439-.115-2.212-1.197.041-.195.065-.3.283-.579.024-.027.049-.053.073-.08l7.015-7.015L.356 2.249C-.535 1.281.823-.886 2.212.393l7.039 7.039z"/>
</svg>