<?xml version="1.0" encoding="UTF-8" standalone="no"?><!DOCTYPE svg PUBLIC "-//W3C//DTD SVG 1.1//EN" "http://www.w3.org/Graphics/SVG/1.1/DTD/svg11.dtd"><svg width="100%" height="100%" viewBox="0 0 34 35" version="1.1" xmlns="http://www.w3.org/2000/svg" xmlns:xlink="http://www.w3.org/1999/xlink" xml:space="preserve" xmlns:serif="http://www.serif.com/" style="fill-rule:evenodd;clip-rule:evenodd;stroke-linejoin:round;stroke-miterlimit:1.41421;"><clipPath id="_clip1"><rect x="0" y="0.724" width="33.635" height="33.635"/></clipPath><g clip-path="url(#_clip1)"><g id="Target"><rect id="Rectangle-38" x="-1.462" y="-0.738" width="36.56" height="36.56" style="fill:none;"/><g id="Group-10"><path id="Combined-Shape" d="M16.818,29.973c-6.865,0 -12.431,-5.566 -12.431,-12.431c0,-6.865 5.566,-12.43 12.431,-12.43c6.865,0 12.43,5.565 12.43,12.43c0,6.865 -5.565,12.431 -12.43,12.431Zm0,-4.388c4.442,0 8.043,-3.601 8.043,-8.043c0,-4.442 -3.601,-8.043 -8.043,-8.043c-4.443,0 -8.044,3.601 -8.044,8.043c0,4.442 3.601,8.043 8.044,8.043Z" style="fill:#fff;fill-rule:nonzero;"/><path id="Rectangle-7" d="M15.721,2.918c0,-0.606 0.491,-1.097 1.097,-1.097c0.605,0 1.096,0.491 1.096,1.097l0,8.774c0,0.606 -0.491,1.097 -1.096,1.097c-0.606,0 -1.097,-0.491 -1.097,-1.097l0,-8.774Z" style="fill:#fff;fill-rule:nonzero;"/><path id="Rectangle-71" serif:id="Rectangle-7" d="M15.721,23.392c0,-0.606 0.491,-1.097 1.097,-1.097c0.605,0 1.096,0.491 1.096,1.097l0,8.774c0,0.606 -0.491,1.097 -1.096,1.097c-0.606,0 -1.097,-0.491 -1.097,-1.097l0,-8.774Z" style="fill:#fff;fill-rule:nonzero;"/><path id="Rectangle-72" serif:id="Rectangle-7" d="M22.667,18.639c-0.605,0 -1.097,-0.491 -1.097,-1.097c0,-0.606 0.492,-1.097 1.097,-1.097l8.775,0c0.605,0 1.096,0.491 1.096,1.097c0,0.606 -0.491,1.097 -1.096,1.097l-8.775,0Z" style="fill:#fff;fill-rule:nonzero;"/><path id="Path" d="M16.818,19.736c1.211,0 2.193,-0.982 2.193,-2.194c0,-1.211 -0.982,-2.194 -2.193,-2.194c-1.212,0 -2.194,0.983 -2.194,2.194c0,1.212 0.982,2.194 2.194,2.194Z" style="fill:#fff;"/><path id="Rectangle-73" serif:id="Rectangle-7" d="M2.194,18.639c-0.606,0 -1.097,-0.491 -1.097,-1.097c0,-0.606 0.491,-1.097 1.097,-1.097l8.774,0c0.606,0 1.097,0.491 1.097,1.097c0,0.606 -0.491,1.097 -1.097,1.097l-8.774,0Z" style="fill:#fff;fill-rule:nonzero;"/><path id="Combined-Shape1" serif:id="Combined-Shape" d="M16.818,24.123c-3.635,0 -6.581,-2.946 -6.581,-6.581c0,-3.634 2.946,-6.581 6.581,-6.581c3.634,0 6.58,2.947 6.58,6.581c0,3.635 -2.946,6.581 -6.58,6.581Zm0,-2.925c2.019,0 3.656,-1.637 3.656,-3.656c0,-2.019 -1.637,-3.656 -3.656,-3.656c-2.02,0 -3.656,1.637 -3.656,3.656c0,2.019 1.636,3.656 3.656,3.656Z" style="fill:#fff;"/></g></g></g></svg>