
<svg xmlns="http://www.w3.org/2000/svg" fill-rule="evenodd" stroke-linejoin="round" stroke-miterlimit="1.41421" clip-rule="evenodd" viewBox="0 0 120 37">
  <g fill="#4360ec" fill-rule="nonzero">
    <path d="M85.365 3.366c-.968-.35-2.015-.535-3.107-.523-1.092-.012-2.139.173-3.107.523-.423.153-.826.342-1.209.557-.386-.216-.793-.403-1.219-.557-.968-.35-2.015-.535-3.107-.523-1.091-.012-3.936 0-3.936 0h-2.516v33.566h3.97V6.815c.941 0 2.908.006 3.055.02 2.385.227 4.153 2.336 4.153 4.733l.004 23.73c-.001 0-.003.001-.004.001v1.11h3.971V11.571c0-1.657-.461-3.254-1.282-4.62.212-.054.43-.095.655-.116.187-.018.379-.024.572-.019.194-.005.385.001.572.019 2.386.227 4.154 2.336 4.154 4.733l.004 23.73c-.001 0-.003.001-.004.001v1.11h3.97V11.571c0-3.624-2.181-6.974-5.589-8.205m23.847 7.774v12.054l-8.384-14.557c.725-1.239 1.982-2.131 3.486-2.275.122-.011.247-.012.372-.014.125.002.25.003.372.014.789.076 1.508.36 2.12.789l.004-.006c1.098.771 1.843 2.017 1.997 3.409l.001.012c.019.175.032.351.032.53v.044zm-.44 18.997l-.003.009c-.212.462-.492.886-.831 1.255-.004.004-.008.008-.011.012-.108.117-.222.229-.342.334-.007.007-.015.013-.022.02-.123.107-.251.208-.385.302-.296.208-.619.38-.961.512-.029.011-.059.021-.089.032-.134.049-.272.09-.412.125-.043.011-.086.023-.129.033-.173.038-.348.069-.529.086-.122.012-.247.013-.372.016-.125-.003-.25-.004-.372-.016-2.386-.227-4.154-2.336-4.154-4.733V14.529l8.717 15.343c-.034.088-.065.179-.105.265m8.941 2.736c-.124-.003-.25-.004-.372-.016-2.386-.227-4.153-2.336-4.153-4.733h-.005v-1.537l-.001-6.966.001-6.631v-1.898c0-3.624-2.182-6.975-5.59-8.206-.813-.294-1.681-.47-2.584-.512v.017c-.107-.005-.213-.016-.321-.017h-.004c-.108.001-.214.012-.321.017v-.017c-.903.042-1.771.218-2.583.512-3.409 1.231-5.59 4.582-5.59 8.206v17.029c0 .008.001.016.001.025.001.419.033.833.091 1.242.009.066.02.132.031.198.056.34.132.674.225 1.002.037.13.078.258.121.386.148.445.331.876.546 1.289.339.653.755 1.262 1.245 1.807.023.026.044.052.066.077.882.959 1.987 1.718 3.264 2.179.908.329 1.885.509 2.904.52h.004c1.019-.011 1.997-.191 2.905-.52 1.065-.384 2.01-.976 2.806-1.719.183-.17.356-.351.523-.537.096-.106.188-.215.278-.326.932 1.149 2.157 2.058 3.607 2.582.908.329 1.886.509 2.904.52h.005l-.003-3.973zm-55.989-9.211V2.97h-3.97v13.457c-.5-.32-1.038-.593-1.613-.8-.947-.342-1.97-.524-3.035-.52h-.002c-1.066-.004-2.089.178-3.035.52-.575.207-1.111.479-1.611.798V2.97h-3.974v33.258h3.974V23.659c.082-2.325 1.816-4.341 4.145-4.563.164-.016.333-.019.502-.017.169-.002.337.001.502.017 2.343.223 4.085 2.262 4.147 4.605v12.527h3.97V23.701h.002c0-.014-.002-.026-.002-.039M12.751 13.67c-.032.051-.065.101-.099.151l-1.489 2.26-2.232 3.389-.098.148-.109.166-3.078 4.671-1.554 2.36-.201.304V11.08c0-1.425.631-2.702 1.617-3.583.851-.76 1.969-1.227 3.198-1.227 2.652 0 4.809 2.157 4.809 4.81 0 .953-.283 1.841-.764 2.59m.764 14.493c0 2.652-2.157 4.81-4.809 4.81-1.23 0-2.35-.468-3.201-1.229l5.227-7.936.431-.653 1.527 2.319.005.007c.518.767.82 1.69.82 2.682m2.564-12.472c.314-.499.576-1.033.784-1.593.348-.942.548-1.956.548-3.018 0-4.809-3.897-8.706-8.705-8.706S0 6.271 0 11.08v17.439h.018c.188 4.642 4 8.35 8.688 8.35 4.462 0 8.134-3.359 8.64-7.685.039-.335.065-.675.065-1.021 0-1.734-.513-3.345-1.387-4.703l-.17-.258-2.361-3.584 2.322-3.525.264-.402zm14.893 3.927l-.11.166-3.077 4.671-1.554 2.36-.201.304v-16.04c0-1.424.63-2.701 1.617-3.582.85-.76 1.969-1.227 3.197-1.227 2.652 0 4.81 2.157 4.81 4.809 0 .955-.283 1.842-.764 2.591-.033.051-.065.101-.1.151l-1.489 2.26-2.232 3.389-.097.148zm6.981-3.525l.265-.402c.313-.499.576-1.033.783-1.594.349-.941.549-1.955.549-3.018 0-4.808-3.898-8.705-8.706-8.705s-8.705 3.897-8.705 8.705v17.44h.018c.187 4.642 3.999 8.35 8.687 8.35 4.462 0 8.135-3.359 8.641-7.685.039-.335.065-.675.065-1.021 0-.028-.003-6.037-.003-6.066l-3.896 2.541c0 .028.003 3.497.003 3.525 0 2.652-2.158 4.81-4.81 4.81-1.229 0-2.349-.468-3.2-1.229l5.227-7.936 5.082-7.715zm79.673-11.736c-1.093 0-1.983-.89-1.983-1.983s.89-1.983 1.983-1.983 1.983.89 1.983 1.983-.89 1.983-1.983 1.983m0-4.357c-1.308 0-2.374 1.065-2.374 2.374 0 1.308 1.066 2.374 2.374 2.374 1.309 0 2.374-1.066 2.374-2.374C120 1.065 118.935 0 117.626 0"/>
    <path d="M118.073 1.759c0-.094-.021-.173-.063-.238-.042-.065-.113-.112-.212-.141-.031-.008-.066-.015-.105-.018-.039-.004-.09-.006-.153-.006h-.269v.809h.312c.084 0 .157-.01.218-.03.061-.021.112-.049.153-.086.041-.036.071-.079.09-.129.019-.049.029-.103.029-.161m.48 1.687c0 .01-.001.019-.005.026-.004.007-.012.014-.024.019-.012.004-.03.008-.052.011-.022.002-.052.004-.089.004-.032 0-.059-.002-.079-.004-.02-.003-.037-.007-.049-.012-.013-.006-.022-.014-.029-.024-.007-.01-.013-.022-.017-.037l-.222-.566c-.026-.064-.052-.123-.08-.177-.028-.054-.061-.1-.1-.139-.038-.039-.083-.07-.135-.091-.052-.022-.114-.033-.188-.033h-.213v1.023c0 .01-.002.019-.008.026-.006.007-.015.013-.026.018-.012.004-.028.008-.048.011-.021.003-.046.005-.078.005-.03 0-.056-.002-.076-.005-.021-.003-.037-.007-.05-.011-.012-.005-.021-.011-.025-.018-.006-.007-.008-.016-.008-.026V1.223c0-.049.012-.082.038-.102.025-.019.052-.028.081-.028h.51c.061 0 .111.001.151.004.041.003.077.007.109.011.093.015.175.041.246.076.071.034.131.078.179.131.048.054.084.114.108.183.025.069.037.145.037.228 0 .08-.011.152-.033.216-.022.063-.053.12-.094.168-.04.05-.089.092-.146.128-.057.036-.121.066-.191.09.039.018.075.04.107.067.033.026.062.058.09.095.028.037.054.08.079.128s.05.103.075.163l.215.53c.017.044.028.075.033.093.005.018.007.032.007.042"/>
  </g>
</svg>