<?xml version="1.0" encoding="UTF-8" standalone="no"?><!DOCTYPE svg PUBLIC "-//W3C//DTD SVG 1.1//EN" "http://www.w3.org/Graphics/SVG/1.1/DTD/svg11.dtd"><svg width="100%" height="100%" viewBox="0 0 26 26" version="1.1" xmlns="http://www.w3.org/2000/svg" xmlns:xlink="http://www.w3.org/1999/xlink" xml:space="preserve" xmlns:serif="http://www.serif.com/" style="fill-rule:evenodd;clip-rule:evenodd;stroke-linejoin:round;stroke-miterlimit:1.41421;"><clipPath id="_clip1"><rect x="0.949" y="0.042" width="25" height="25"/></clipPath><g clip-path="url(#_clip1)"><g id="Email"><rect id="Rectangle-51" x="-1.432" y="-2.339" width="29.762" height="29.762" style="fill:none;"/><g id="Group-36"><path id="Rectangle-14" d="M21.55,7.139l2.956,2.057c0.158,0.11 0.252,0.29 0.252,0.481l0,1.695c0,0.329 0.267,0.596 0.595,0.596c0.329,0 0.596,-0.267 0.596,-0.596l0,-1.695c0,-0.581 -0.285,-1.126 -0.763,-1.458l-2.956,-2.057c-0.27,-0.188 -0.641,-0.121 -0.829,0.148c-0.187,0.27 -0.121,0.641 0.149,0.829Zm-19.411,4.233l0,-1.695c0,-0.191 0.094,-0.371 0.253,-0.481l3.043,-2.118c0.27,-0.187 0.336,-0.558 0.148,-0.828c-0.188,-0.27 -0.559,-0.337 -0.828,-0.149l-3.043,2.118c-0.478,0.332 -0.763,0.877 -0.763,1.458l0,1.695c0,0.329 0.266,0.596 0.595,0.596c0.329,0 0.595,-0.267 0.595,-0.596Z" style="fill:#fff;fill-rule:nonzero;"/><path id="Combined-Shape" d="M4.52,8.949l0,-8.312c0,-0.328 0.267,-0.595 0.595,-0.595l16.667,0c0.329,0 0.595,0.267 0.595,0.595l0,8.312l-8.928,5.254l-8.929,-5.254Zm5.357,-0.574l7.143,0c0.329,0 0.595,-0.266 0.595,-0.595c0,-0.329 -0.266,-0.595 -0.595,-0.595l-7.143,0c-0.328,0 -0.595,0.266 -0.595,0.595c0,0.329 0.267,0.595 0.595,0.595Zm0,-3.571l7.143,0c0.329,0 0.595,-0.267 0.595,-0.595c0,-0.329 -0.266,-0.596 -0.595,-0.596l-7.143,0c-0.328,0 -0.595,0.267 -0.595,0.596c0,0.328 0.267,0.595 0.595,0.595Z" style="fill:#fff;fill-rule:nonzero;"/><path id="Rectangle-141" serif:id="Rectangle-14" d="M23.257,9.813c0.85,-0.5 1.945,-0.217 2.445,0.633c0.162,0.275 0.247,0.587 0.247,0.906l0,10.714c0,1.644 -1.333,2.976 -2.976,2.976l-19.048,0c-1.644,0 -2.976,-1.332 -2.976,-2.976l0,-10.714c0,-0.986 0.799,-1.786 1.785,-1.786c0.319,0 0.632,0.085 0.906,0.247l9.809,5.771l9.808,-5.771Z" style="fill:#fff;fill-rule:nonzero;"/></g></g></g></svg>