<?xml version="1.0" encoding="UTF-8" standalone="no"?><!DOCTYPE svg PUBLIC "-//W3C//DTD SVG 1.1//EN" "http://www.w3.org/Graphics/SVG/1.1/DTD/svg11.dtd"><svg width="100%" height="100%" viewBox="0 0 30 25" version="1.1" xmlns="http://www.w3.org/2000/svg" xmlns:xlink="http://www.w3.org/1999/xlink" xml:space="preserve" xmlns:serif="http://www.serif.com/" style="fill-rule:evenodd;clip-rule:evenodd;stroke-linejoin:round;stroke-miterlimit:1.41421;"><clipPath id="_clip1"><rect x="0.969" y="0.113" width="29" height="24.857"/></clipPath><g clip-path="url(#_clip1)"><g id="Marketing"><rect id="Rectangle-52" x="-1.793" y="-4.029" width="34.524" height="34.524" style="fill:none;"/><g id="Group-21"><path id="Combined-Shape" d="M10.862,17.295l1.145,6.872c0.07,0.421 -0.255,0.804 -0.681,0.804l-2.762,0c-0.262,0 -0.501,-0.148 -0.618,-0.382l-4.099,-8.198c0.409,0.135 0.837,0.229 1.28,0.278l5.735,0.626Z" style="fill:#fff;fill-rule:nonzero;"/><path id="Combined-Shape1" serif:id="Combined-Shape" d="M10.635,3.69l2.463,-0.266l7.204,-2.308l0,6.593c0,0.381 0.309,0.69 0.69,0.69c0.382,0 0.691,-0.309 0.691,-0.69l0,-7.035l1.439,-0.461c1.09,-0.349 2.256,0.251 2.605,1.341c0.065,0.204 0.099,0.417 0.099,0.631l0,15.191c0,1.144 -0.928,2.071 -2.072,2.071c-0.213,0 -0.426,-0.033 -0.629,-0.098l-9.958,-3.191l-2.532,-0.277l0,-12.191Zm-1.381,0.149l0,11.891l-3.977,-0.434c-2.451,-0.268 -4.308,-2.338 -4.308,-4.805l0,-1.419c0,-2.468 1.86,-4.54 4.315,-4.805l3.97,-0.428Z" style="fill:#fff;fill-rule:nonzero;"/><path id="Combined-Shape2" serif:id="Combined-Shape" d="M27.207,6.378c1.247,0.743 2.071,1.98 2.071,3.402c0,1.423 -0.824,2.659 -2.071,3.402l0,-6.804Z" style="fill:#fff;fill-rule:nonzero;"/></g></g></g></svg>